<svg width="16" height="16" viewBox="0 0 48 48" fill="none" xmlns="http://www.w3.org/2000/svg"><g clip-path="url(#a)"><path d="M42.517 39.253A23.9 23.9 0 0 0 48 23.984c0-13.254-10.746-24-24-24s-24 10.746-24 24a23.899 23.899 0 0 0 5.483 15.27h37.034Z" fill="#272B30"/><path d="M5.483 39.253a23.961 23.961 0 0 0 2.022 2.163H40.5a24.082 24.082 0 0 0 2.021-2.163H5.483Zm7.908 6.263H34.61a23.876 23.876 0 0 0 3.562-2.162H9.83a23.883 23.883 0 0 0 3.562 2.162Z" fill="#FF6740"/><path d="M36.697 27.006a11.06 11.06 0 0 1-2.34-2.84l-.016-.032a10.904 10.904 0 0 1-1.332-3.978c-.008-.086-.02-.172-.027-.26v-.015a2.813 2.813 0 0 0-.603-1.34 1.698 1.698 0 0 0-.093-.1 19.276 19.276 0 0 0-9.8-5.911 12.152 12.152 0 0 1 1.499-6.436.699.699 0 0 0-.78-1.013A25.467 25.467 0 0 0 5.189 17.795a23.166 23.166 0 0 0-3.18-1.412c-.23-.082-.463-.157-.696-.233a24.047 24.047 0 0 0 2.51 20.834H31.01a2.807 2.807 0 0 0 2.666-1.94 2.795 2.795 0 0 1 .976-1.494h.005c.035-.03.07-.056.108-.081.05-.039.1-.07.151-.103a5.51 5.51 0 0 0 2.218-4.428 5.464 5.464 0 0 0-.31-1.826c-.046-.039-.087-.07-.127-.106Zm-6.322-2.05a.705.705 0 0 1-.324-.081 3.764 3.764 0 0 0-1.894-.506 3.874 3.874 0 0 0-1.835.47c-.005 0-.01.008-.016.01a.252.252 0 0 0-.059.035.68.68 0 0 1-.616-1.213 5.155 5.155 0 0 1 2.526-.656 5.103 5.103 0 0 1 2.267.524c.089.04.175.086.261.135l.068.041a.678.678 0 0 1-.375 1.242l-.003-.002Z" fill="#F1F1F1"/><path d="M5.258 17.676c1.304 6.245 6.718 10.93 13.21 10.93 3.822 0 7.27-1.625 9.727-4.235h-.04a3.874 3.874 0 0 0-1.835.47c-.004 0-.01.008-.016.01a.25.25 0 0 0-.059.035.68.68 0 0 1-.616-1.213 5.156 5.156 0 0 1 3.608-.544 13.906 13.906 0 0 0 2.42-5.356 19.246 19.246 0 0 0-9.167-5.239 12.153 12.153 0 0 1 1.496-6.44.699.699 0 0 0-.781-1.013A25.467 25.467 0 0 0 5.258 17.676Z" fill="#FF6740"/><path d="M33.236 30.59a21.531 21.531 0 0 0-1.752-.518c-.59-.142-1.18-.296-1.776-.412a25.572 25.572 0 0 0-3.602-.482c-.302-.026-.605-.035-.907-.049a10.12 10.12 0 0 0-.908 0c-.303.013-.605.022-.908.035l-.452.036a8.163 8.163 0 0 0-.453.042 17.423 17.423 0 0 0-3.558.75l-.006-.018a15.162 15.162 0 0 1 3.547-.882c.302-.045.607-.065.91-.094.305-.03.61-.04.916-.043.306-.003.61-.006.916-.005.305.001.61.018.915.04 1.219.084 2.43.26 3.621.527.597.132 1.188.285 1.773.46.585.174 1.165.367 1.732.596l-.008.017Zm-.529 1.11a23.686 23.686 0 0 0-1.81-.252c-.605-.058-1.21-.117-1.817-.144a25.564 25.564 0 0 0-3.634.058c-.302.02-.603.056-.904.087-.301.03-.601.076-.9.13a66.48 66.48 0 0 0-.89.17l-.442.103c-.15.03-.296.07-.442.107-.587.15-1.166.333-1.732.549-.57.213-1.13.456-1.675.727l-.008-.016a15.26 15.26 0 0 1 3.375-1.4c.292-.09.59-.154.887-.229.299-.06.596-.13.898-.178.302-.048.603-.094.905-.14.303-.047.606-.074.91-.094a23.979 23.979 0 0 1 3.657-.018c.61.042 1.217.104 1.822.187.603.086 1.205.188 1.8.333v.02Zm-.082 1.293c-.61.026-1.219.07-1.822.144-.602.074-1.207.146-1.805.251-1.197.197-2.379.48-3.536.844-.291.084-.576.188-.864.281-.288.094-.57.206-.844.323-.273.117-.562.236-.835.357l-.409.196c-.139.062-.273.131-.408.2a15.86 15.86 0 0 0-1.573.91c-.51.331-1.004.689-1.477 1.071l-.012-.014a15.201 15.201 0 0 1 2.991-2.099c.267-.15.544-.281.817-.415.273-.134.554-.256.838-.369.284-.112.568-.224.854-.331.286-.108.576-.203.868-.291a24.127 24.127 0 0 1 3.57-.807c.604-.09 1.21-.159 1.82-.206a19.495 19.495 0 0 1 1.83-.064l-.003.019Z" fill="#272B30"/><path d="M36.697 27.006c-.204-.178-.4-.363-.591-.554a1.788 1.788 0 0 0 .925 3.32h.027c.012-.075.029-.148.037-.225a5.461 5.461 0 0 0-.276-2.437c-.04-.037-.082-.069-.122-.104Z" fill="#FF7BAC"/><path d="M21.87 13.455v.254a19.236 19.236 0 0 0-5.85 3.729 10.269 10.269 0 0 1 8.032-11.514 14.02 14.02 0 0 0-2.182 7.531Z" fill="#F1F1F1"/></g><defs><clipPath id="a"><path fill="#fff" d="M0 0h48v48H0z"/></clipPath></defs></svg>