<?xml version="1.0" standalone="no"?>
<!DOCTYPE svg PUBLIC "-//W3C//DTD SVG 20010904//EN"
 "http://www.w3.org/TR/2001/REC-SVG-20010904/DTD/svg10.dtd">
<svg version="1.0" xmlns="http://www.w3.org/2000/svg"
 width="512.000000pt" height="512.000000pt" viewBox="0 0 512.000000 512.000000"
 preserveAspectRatio="xMidYMid meet">
<metadata>
Created by potrace 1.14, written by Peter Selinger 2001-2017
</metadata>
<g transform="translate(0.000000,512.000000) scale(0.100000,-0.100000)"
fill="#000000" stroke="none">
<path d="M2265 4873 c-50 -10 -122 -47 -145 -75 -43 -54 -60 -122 -55 -223 2
-49 7 -99 10 -110 6 -20 1 -20 -377 -20 -211 0 -412 -4 -448 -9 -36 -4 -78
-10 -95 -12 -54 -7 -129 -14 -190 -19 -33 -2 -73 -7 -90 -10 -42 -7 -155 -55
-155 -65 0 -5 -9 -11 -19 -15 -25 -8 -91 -73 -155 -155 -72 -91 -79 -103 -119
-217 -58 -162 -64 -252 -61 -813 3 -434 6 -629 20 -1285 3 -176 7 -428 9 -560
3 -310 16 -367 123 -549 73 -124 229 -250 347 -281 17 -5 37 -11 45 -14 23 -9
2041 -7 2047 2 2 4 9 4 15 1 12 -8 158 -11 158 -4 0 3 130 5 289 6 258 1 555
9 651 18 19 2 69 7 110 11 41 3 78 9 82 11 4 3 20 7 35 9 49 8 58 11 140 46
94 39 227 149 311 253 23 29 92 170 92 188 0 9 5 20 10 23 6 4 10 12 8 18 -1
7 1 21 5 32 39 121 49 417 33 1020 -4 143 -9 343 -12 445 -2 102 -7 250 -9
330 -3 80 -7 332 -9 560 -4 423 -11 508 -49 615 -48 133 -134 229 -272 303
-75 40 -101 49 -250 77 -58 12 -390 20 -1165 30 -168 2 -308 4 -312 4 -4 1 -5
11 -3 22 2 12 -4 40 -14 63 -10 22 -22 51 -25 64 -4 12 -11 22 -16 22 -11 0
-22 37 -26 93 -5 60 -36 118 -75 141 -16 10 -54 20 -83 23 -44 5 -64 1 -115
-22 l-62 -28 -20 21 c-11 12 -32 24 -47 28 -15 3 -31 7 -37 8 -5 1 -19 1 -30
-1z"/>
</g>
</svg>
